<svg xmlns="http://www.w3.org/2000/svg" viewBox="0 0 560 760" width="560" height="760" role="img" aria-label="ネフロンの各部分と皮質・髄質の位置の模式図" font-family="'BIZ UDPGothic','Hiragino Kaku Gothic ProN','Yu Gothic','Noto Sans CJK JP','Noto Sans JP',sans-serif"><title>ネフロンの各部分と皮質・髄質の位置の模式図</title><rect width="560" height="760" fill="#ffffff"/><defs><marker id="ah" viewBox="0 0 10 10" refX="8.5" refY="5" markerWidth="6.5" markerHeight="6.5" orient="auto-start-reverse"><path d="M0,0 L10,5 L0,10 z" fill="#607487"/></marker><marker id="ahr" viewBox="0 0 10 10" refX="8.5" refY="5" markerWidth="6.5" markerHeight="6.5" orient="auto-start-reverse"><path d="M0,0 L10,5 L0,10 z" fill="#cf2634"/></marker><marker id="ahb" viewBox="0 0 10 10" refX="8.5" refY="5" markerWidth="6.5" markerHeight="6.5" orient="auto-start-reverse"><path d="M0,0 L10,5 L0,10 z" fill="#0b5ea8"/></marker></defs><rect x="20" y="20" width="520" height="220" rx="12" fill="#fbf3e4" stroke="#e0cfa8" stroke-width="2"/><rect x="20" y="240" width="520" height="260" rx="12" fill="#f6e2e2" stroke="#e4c2c2" stroke-width="2"/><text x="34" y="48" font-size="19" fill="#8a6a2a" font-weight="bold" text-anchor="start" >皮質</text><text x="34" y="272" font-size="19" fill="#9c4a4a" font-weight="bold" text-anchor="start" >髄質（腎錐体）</text><circle cx="120" cy="140" r="38" fill="#fff" stroke="#0b5ea8" stroke-width="3"/><circle cx="110" cy="132" r="9" fill="none" stroke="#cf2634" stroke-width="3"/><circle cx="128" cy="130" r="9" fill="none" stroke="#cf2634" stroke-width="3"/><circle cx="114" cy="149" r="9" fill="none" stroke="#cf2634" stroke-width="3"/><circle cx="130" cy="147" r="9" fill="none" stroke="#cf2634" stroke-width="3"/><circle cx="120" cy="140" r="9" fill="none" stroke="#cf2634" stroke-width="3"/><polyline points="158,140 172,104 190,150 208,104 226,150 244,108 262,150 262,450" fill="none" stroke="#0b5ea8" stroke-width="5" stroke-linejoin="round"/><path d="M262,450 C262,490 312,490 312,450" fill="none" stroke="#0b5ea8" stroke-width="5"/><polyline points="312,450 312,200 330,172 348,206 366,172 384,204 402,176 430,176" fill="none" stroke="#0b5ea8" stroke-width="5" stroke-linejoin="round"/><line x1="440" y1="60" x2="440" y2="520" stroke="#9aa9b8" stroke-width="14" stroke-linecap="round"/><polygon points="410,500 470,500 440,540" fill="#9aa9b8"/><line x1="262" y1="330" x2="262" y2="346" stroke="#0b5ea8" stroke-width="5" marker-end="url(#ahb)"/><line x1="262" y1="390" x2="262" y2="406" stroke="#0b5ea8" stroke-width="5" marker-end="url(#ahb)"/><line x1="312" y1="410" x2="312" y2="390" stroke="#0b5ea8" stroke-width="5" marker-end="url(#ahb)"/><line x1="440" y1="300" x2="440" y2="330" stroke="#fff" stroke-width="4" marker-end="url(#ah)"/><circle cx="120" cy="76" r="15" fill="#073b6a"/><text x="120" y="82" font-size="17" fill="#fff" font-weight="bold" text-anchor="middle" >1</text><circle cx="215" cy="80" r="15" fill="#073b6a"/><text x="215" y="86" font-size="17" fill="#fff" font-weight="bold" text-anchor="middle" >2</text><circle cx="230" cy="470" r="15" fill="#073b6a"/><text x="230" y="476" font-size="17" fill="#fff" font-weight="bold" text-anchor="middle" >3</text><circle cx="360" cy="140" r="15" fill="#073b6a"/><text x="360" y="146" font-size="17" fill="#fff" font-weight="bold" text-anchor="middle" >4</text><circle cx="478" cy="120" r="15" fill="#607487"/><text x="478" y="126" font-size="17" fill="#fff" font-weight="bold" text-anchor="middle" >5</text><text x="440" y="570" font-size="17" fill="#607487" font-weight="bold" text-anchor="middle" >腎乳頭 → 腎杯 → 腎盂 → 尿管</text><circle cx="34" cy="594" r="15" fill="#073b6a"/><text x="34" y="600" font-size="17" fill="#fff" font-weight="bold" text-anchor="middle" >1</text><text x="58" y="600" font-size="16.5" fill="#142638" font-weight="normal" text-anchor="start" >腎小体＝糸球体＋ボーマン嚢：原尿をこし出す</text><circle cx="34" cy="624" r="15" fill="#073b6a"/><text x="34" y="630" font-size="17" fill="#fff" font-weight="bold" text-anchor="middle" >2</text><text x="58" y="630" font-size="16.5" fill="#142638" font-weight="normal" text-anchor="start" >近位尿細管（皮質）</text><circle cx="34" cy="654" r="15" fill="#073b6a"/><text x="34" y="660" font-size="17" fill="#fff" font-weight="bold" text-anchor="middle" >3</text><text x="58" y="660" font-size="16.5" fill="#142638" font-weight="normal" text-anchor="start" >ヘンレのワナ（髄質へ下りて戻る）</text><circle cx="34" cy="684" r="15" fill="#073b6a"/><text x="34" y="690" font-size="17" fill="#fff" font-weight="bold" text-anchor="middle" >4</text><text x="58" y="690" font-size="16.5" fill="#142638" font-weight="normal" text-anchor="start" >遠位尿細管（皮質）</text><circle cx="34" cy="714" r="15" fill="#607487"/><text x="34" y="720" font-size="17" fill="#fff" font-weight="bold" text-anchor="middle" >5</text><text x="58" y="720" font-size="16.5" fill="#142638" font-weight="normal" text-anchor="start" >集合管（髄質）＝ネフロンに入らない</text><path d="M548,582 h6 v120 h-6" fill="none" stroke="#0b5ea8" stroke-width="2"/><text x="546" y="752" font-size="15" fill="#0b5ea8" font-weight="bold" text-anchor="end" >ネフロン＝1〜4</text></svg>