<svg xmlns="http://www.w3.org/2000/svg" viewBox="0 0 560 520" width="560" height="520" role="img" aria-label="虫垂炎の圧痛点（マックバーネー・ランツ・ムンロー）の位置関係" font-family="'BIZ UDPGothic','Hiragino Kaku Gothic ProN','Yu Gothic','Noto Sans CJK JP','Noto Sans JP',sans-serif"><title>虫垂炎の圧痛点（マックバーネー・ランツ・ムンロー）の位置関係</title><rect width="560" height="520" fill="#ffffff"/><defs><marker id="ah" viewBox="0 0 10 10" refX="8.5" refY="5" markerWidth="6.5" markerHeight="6.5" orient="auto-start-reverse"><path d="M0,0 L10,5 L0,10 z" fill="#607487"/></marker><marker id="ahr" viewBox="0 0 10 10" refX="8.5" refY="5" markerWidth="6.5" markerHeight="6.5" orient="auto-start-reverse"><path d="M0,0 L10,5 L0,10 z" fill="#cf2634"/></marker><marker id="ahb" viewBox="0 0 10 10" refX="8.5" refY="5" markerWidth="6.5" markerHeight="6.5" orient="auto-start-reverse"><path d="M0,0 L10,5 L0,10 z" fill="#0b5ea8"/></marker><marker id="ahg" viewBox="0 0 10 10" refX="8.5" refY="5" markerWidth="6.5" markerHeight="6.5" orient="auto-start-reverse"><path d="M0,0 L10,5 L0,10 z" fill="#2e8b57"/></marker><marker id="aho" viewBox="0 0 10 10" refX="8.5" refY="5" markerWidth="6.5" markerHeight="6.5" orient="auto-start-reverse"><path d="M0,0 L10,5 L0,10 z" fill="#c2570c"/></marker><marker id="ahp" viewBox="0 0 10 10" refX="8.5" refY="5" markerWidth="6.5" markerHeight="6.5" orient="auto-start-reverse"><path d="M0,0 L10,5 L0,10 z" fill="#6a4fb3"/></marker></defs><path d="M60,30 Q40,160 70,300 Q130,380 280,392 Q430,380 490,300 Q520,160 500,30" fill="#fbf8ef" stroke="#607487" stroke-width="2.5" stroke-linejoin="round" stroke-linecap="round"/><line x1="200" y1="40" x2="200" y2="380" stroke="#6a4fb3" stroke-width="1.8" stroke-dasharray="6 5"/><line x1="360" y1="40" x2="360" y2="380" stroke="#6a4fb3" stroke-width="1.8" stroke-dasharray="6 5"/><text x="206" y="58" font-size="12.5" fill="#6a4fb3" font-weight="normal" text-anchor="start" >腹直筋外縁</text><line x1="280" y1="130" x2="110" y2="300" stroke="#0b5ea8" stroke-width="2.5"/><line x1="110" y1="300" x2="450" y2="300" stroke="#2e8b57" stroke-width="2.5"/><circle cx="280" cy="130" r="9" fill="#fff" stroke="#142638" stroke-width="2.5"/><text x="294" y="122" font-size="16" fill="#142638" font-weight="bold" text-anchor="start" >臍</text><circle cx="110" cy="300" r="7" fill="#142638" stroke="#142638" stroke-width="1"/><text x="70" y="328" font-size="14" fill="#142638" font-weight="bold" text-anchor="start" >右上前腸骨棘</text><circle cx="450" cy="300" r="7" fill="#142638" stroke="#142638" stroke-width="1"/><text x="490" y="328" font-size="14" fill="#142638" font-weight="bold" text-anchor="end" >左上前腸骨棘</text><circle cx="166.66666666666666" cy="243.33333333333334" r="10" fill="#cf2634" stroke="#fff" stroke-width="3"/><text x="16.666666666666657" y="237.33333333333334" font-size="16" fill="#cf2634" font-weight="bold" text-anchor="start" >マックバーネー</text><circle cx="223.33333333333331" cy="300" r="10" fill="#c2570c" stroke="#fff" stroke-width="3"/><text x="233.33333333333331" y="330" font-size="16" fill="#c2570c" font-weight="bold" text-anchor="start" >ランツ</text><circle cx="200" cy="210.0" r="10" fill="#6a4fb3" stroke="#fff" stroke-width="3"/><text x="104" y="198.0" font-size="16" fill="#6a4fb3" font-weight="bold" text-anchor="start" >ムンロー</text><line x1="300" y1="60" x2="190" y2="250" stroke="#cf2634" stroke-width="2.5" marker-end="url(#ahr)" stroke-dasharray="7 5"/><text x="316" y="64" font-size="14.5" fill="#cf2634" font-weight="bold" text-anchor="start" >心窩部痛 → 右下腹部痛へ移動</text><text x="40" y="380" font-size="14" fill="#607487" font-weight="normal" text-anchor="start" >右</text><text x="520" y="380" font-size="14" fill="#607487" font-weight="normal" text-anchor="end" >左</text><text x="14" y="424" font-size="15" fill="#cf2634" font-weight="bold" text-anchor="start" >マックバーネー点</text><text x="150" y="424" font-size="14.5" fill="#142638" font-weight="normal" text-anchor="start" >臍と右上前腸骨棘を結ぶ線の外側1/3</text><text x="14" y="452" font-size="15" fill="#c2570c" font-weight="bold" text-anchor="start" >ランツ点</text><text x="150" y="452" font-size="14.5" fill="#142638" font-weight="normal" text-anchor="start" >左右上前腸骨棘を結ぶ線の右1/3</text><text x="14" y="480" font-size="15" fill="#6a4fb3" font-weight="bold" text-anchor="start" >ムンロー点</text><text x="150" y="480" font-size="14.5" fill="#142638" font-weight="normal" text-anchor="start" >臍−右上前腸骨棘線と腹直筋外縁の交点</text><text x="14" y="508" font-size="14" fill="#607487" font-weight="bold" text-anchor="start" >反動痛（ブルンベルグ徴候）は腹膜まで炎症が及んだサイン</text></svg>