<svg xmlns="http://www.w3.org/2000/svg" viewBox="0 0 560 520" width="560" height="520" role="img" aria-label="深部反射の反射弓と髄節レベル" font-family="'BIZ UDPGothic','Hiragino Kaku Gothic ProN','Yu Gothic','Noto Sans CJK JP','Noto Sans JP',sans-serif"><title>深部反射の反射弓と髄節レベル</title><rect width="560" height="520" fill="#ffffff"/><defs><marker id="ah" viewBox="0 0 10 10" refX="8.5" refY="5" markerWidth="6.5" markerHeight="6.5" orient="auto-start-reverse"><path d="M0,0 L10,5 L0,10 z" fill="#607487"/></marker><marker id="ahr" viewBox="0 0 10 10" refX="8.5" refY="5" markerWidth="6.5" markerHeight="6.5" orient="auto-start-reverse"><path d="M0,0 L10,5 L0,10 z" fill="#cf2634"/></marker><marker id="ahb" viewBox="0 0 10 10" refX="8.5" refY="5" markerWidth="6.5" markerHeight="6.5" orient="auto-start-reverse"><path d="M0,0 L10,5 L0,10 z" fill="#0b5ea8"/></marker><marker id="ahg" viewBox="0 0 10 10" refX="8.5" refY="5" markerWidth="6.5" markerHeight="6.5" orient="auto-start-reverse"><path d="M0,0 L10,5 L0,10 z" fill="#2e8b57"/></marker><marker id="aho" viewBox="0 0 10 10" refX="8.5" refY="5" markerWidth="6.5" markerHeight="6.5" orient="auto-start-reverse"><path d="M0,0 L10,5 L0,10 z" fill="#c2570c"/></marker><marker id="ahp" viewBox="0 0 10 10" refX="8.5" refY="5" markerWidth="6.5" markerHeight="6.5" orient="auto-start-reverse"><path d="M0,0 L10,5 L0,10 z" fill="#6a4fb3"/></marker></defs><rect x="250" y="14" width="24" height="30" rx="5" fill="#f3f8fc" stroke="#d8e4ee" stroke-width="1.5" /><text x="262.0" y="34" font-size="12.5" fill="#073b6a" font-weight="bold" text-anchor="middle" >C5</text><rect x="277" y="14" width="24" height="30" rx="5" fill="#f3f8fc" stroke="#d8e4ee" stroke-width="1.5" /><text x="289.0" y="34" font-size="12.5" fill="#073b6a" font-weight="bold" text-anchor="middle" >C6</text><rect x="304" y="14" width="24" height="30" rx="5" fill="#f3f8fc" stroke="#d8e4ee" stroke-width="1.5" /><text x="316.0" y="34" font-size="12.5" fill="#073b6a" font-weight="bold" text-anchor="middle" >C7</text><rect x="331" y="14" width="24" height="30" rx="5" fill="#f3f8fc" stroke="#d8e4ee" stroke-width="1.5" /><text x="343.0" y="34" font-size="12.5" fill="#073b6a" font-weight="bold" text-anchor="middle" >C8</text><rect x="358" y="14" width="24" height="30" rx="5" fill="#fff" stroke="#fff" stroke-width="1.5" /><text x="370.0" y="34" font-size="12.5" fill="#073b6a" font-weight="bold" text-anchor="middle" >…</text><rect x="385" y="14" width="24" height="30" rx="5" fill="#f3f8fc" stroke="#d8e4ee" stroke-width="1.5" /><text x="397.0" y="34" font-size="12.5" fill="#073b6a" font-weight="bold" text-anchor="middle" >L2</text><rect x="412" y="14" width="24" height="30" rx="5" fill="#f3f8fc" stroke="#d8e4ee" stroke-width="1.5" /><text x="424.0" y="34" font-size="12.5" fill="#073b6a" font-weight="bold" text-anchor="middle" >L3</text><rect x="439" y="14" width="24" height="30" rx="5" fill="#f3f8fc" stroke="#d8e4ee" stroke-width="1.5" /><text x="451.0" y="34" font-size="12.5" fill="#073b6a" font-weight="bold" text-anchor="middle" >L4</text><rect x="466" y="14" width="24" height="30" rx="5" fill="#f3f8fc" stroke="#d8e4ee" stroke-width="1.5" /><text x="478.0" y="34" font-size="12.5" fill="#073b6a" font-weight="bold" text-anchor="middle" >L5</text><rect x="493" y="14" width="24" height="30" rx="5" fill="#f3f8fc" stroke="#d8e4ee" stroke-width="1.5" /><text x="505.0" y="34" font-size="12.5" fill="#073b6a" font-weight="bold" text-anchor="middle" >S1</text><rect x="520" y="14" width="24" height="30" rx="5" fill="#f3f8fc" stroke="#d8e4ee" stroke-width="1.5" /><text x="532.0" y="34" font-size="12.5" fill="#073b6a" font-weight="bold" text-anchor="middle" >S2</text><rect x="10" y="56" width="540" height="42" rx="6" fill="#f3f8fc" stroke="#d8e4ee" stroke-width="1.5" /><text x="20" y="75" font-size="15.5" fill="#073b6a" font-weight="bold" text-anchor="start" >下顎反射</text><text x="20" y="93" font-size="12.5" fill="#607487" font-weight="normal" text-anchor="start" >三叉神経（橋）</text><text x="254" y="83" font-size="14" fill="#607487" font-weight="bold" text-anchor="start" >脳幹（橋）レベル</text><rect x="10" y="104" width="540" height="42" rx="6" fill="#fff" stroke="#d8e4ee" stroke-width="1.5" /><text x="20" y="123" font-size="15.5" fill="#0b5ea8" font-weight="bold" text-anchor="start" >上腕二頭筋反射</text><text x="20" y="141" font-size="12.5" fill="#607487" font-weight="normal" text-anchor="start" >筋皮神経</text><rect x="252" y="115" width="47" height="20" rx="10" fill="#0b5ea8" stroke="#0b5ea8" stroke-width="1" /><rect x="10" y="152" width="540" height="42" rx="6" fill="#f3f8fc" stroke="#d8e4ee" stroke-width="1.5" /><text x="20" y="171" font-size="15.5" fill="#0b5ea8" font-weight="bold" text-anchor="start" >上腕三頭筋反射</text><text x="20" y="189" font-size="12.5" fill="#607487" font-weight="normal" text-anchor="start" >橈骨神経（主にC7）</text><rect x="279" y="163" width="74" height="20" rx="10" fill="#0b5ea8" stroke="#0b5ea8" stroke-width="1" /><rect x="10" y="200" width="540" height="42" rx="6" fill="#fff" stroke="#d8e4ee" stroke-width="1.5" /><text x="20" y="219" font-size="15.5" fill="#0b5ea8" font-weight="bold" text-anchor="start" >腕橈骨筋反射</text><text x="20" y="237" font-size="12.5" fill="#607487" font-weight="normal" text-anchor="start" >橈骨神経（＝橈骨反射）</text><rect x="252" y="211" width="47" height="20" rx="10" fill="#0b5ea8" stroke="#0b5ea8" stroke-width="1" /><rect x="10" y="248" width="540" height="42" rx="6" fill="#f3f8fc" stroke="#d8e4ee" stroke-width="1.5" /><text x="20" y="267" font-size="15.5" fill="#2e8b57" font-weight="bold" text-anchor="start" >膝蓋腱反射</text><text x="20" y="285" font-size="12.5" fill="#607487" font-weight="normal" text-anchor="start" >大腿神経</text><rect x="387" y="259" width="74" height="20" rx="10" fill="#2e8b57" stroke="#2e8b57" stroke-width="1" /><rect x="10" y="296" width="540" height="42" rx="6" fill="#fff" stroke="#d8e4ee" stroke-width="1.5" /><text x="20" y="315" font-size="15.5" fill="#2e8b57" font-weight="bold" text-anchor="start" >アキレス腱反射</text><text x="20" y="333" font-size="12.5" fill="#607487" font-weight="normal" text-anchor="start" >脛骨神経</text><rect x="495" y="307" width="47" height="20" rx="10" fill="#2e8b57" stroke="#2e8b57" stroke-width="1" /><text x="14" y="356" font-size="14" fill="#073b6a" font-weight="bold" text-anchor="start" >ヘルニア：L3/4 → 膝蓋腱反射↓　L5/S1 → アキレス腱反射↓</text><rect x="10" y="372" width="266" height="138" rx="10" fill="#fdecee" stroke="#cf2634" stroke-width="2" /><text x="22" y="398" font-size="17" fill="#cf2634" font-weight="bold" text-anchor="start" >亢進する</text><text x="22" y="421.2" font-size="14.5" fill="#142638" font-weight="normal" text-anchor="start" >上位運動ニューロン障害</text><text x="22" y="445.2" font-size="14.5" fill="#142638" font-weight="normal" text-anchor="start" >（錐体路障害）</text><text x="22" y="469.2" font-size="14.5" fill="#142638" font-weight="normal" text-anchor="start" >＋病的反射が出る</text><rect x="284" y="372" width="266" height="138" rx="10" fill="#e4effa" stroke="#0b5ea8" stroke-width="2" /><text x="296" y="398" font-size="17" fill="#0b5ea8" font-weight="bold" text-anchor="start" >減弱・消失する</text><text x="296" y="421.2" font-size="14.5" fill="#142638" font-weight="normal" text-anchor="start" >脊髄前角障害（ポリオ）</text><text x="296" y="445.2" font-size="14.5" fill="#142638" font-weight="normal" text-anchor="start" >後索障害（脊髄癆）</text><text x="296" y="469.2" font-size="14.5" fill="#142638" font-weight="normal" text-anchor="start" >末梢神経障害</text></svg>