<svg xmlns="http://www.w3.org/2000/svg" viewBox="0 0 560 562" width="560" height="562" role="img" aria-label="感覚の種類・二点識別覚とロンベルグ試験" font-family="'BIZ UDPGothic','Hiragino Kaku Gothic ProN','Yu Gothic','Noto Sans CJK JP','Noto Sans JP',sans-serif"><title>感覚の種類・二点識別覚とロンベルグ試験</title><rect width="560" height="562" fill="#ffffff"/><defs><marker id="ah" viewBox="0 0 10 10" refX="8.5" refY="5" markerWidth="6.5" markerHeight="6.5" orient="auto-start-reverse"><path d="M0,0 L10,5 L0,10 z" fill="#607487"/></marker><marker id="ahr" viewBox="0 0 10 10" refX="8.5" refY="5" markerWidth="6.5" markerHeight="6.5" orient="auto-start-reverse"><path d="M0,0 L10,5 L0,10 z" fill="#cf2634"/></marker><marker id="ahb" viewBox="0 0 10 10" refX="8.5" refY="5" markerWidth="6.5" markerHeight="6.5" orient="auto-start-reverse"><path d="M0,0 L10,5 L0,10 z" fill="#0b5ea8"/></marker><marker id="ahg" viewBox="0 0 10 10" refX="8.5" refY="5" markerWidth="6.5" markerHeight="6.5" orient="auto-start-reverse"><path d="M0,0 L10,5 L0,10 z" fill="#2e8b57"/></marker><marker id="aho" viewBox="0 0 10 10" refX="8.5" refY="5" markerWidth="6.5" markerHeight="6.5" orient="auto-start-reverse"><path d="M0,0 L10,5 L0,10 z" fill="#c2570c"/></marker><marker id="ahp" viewBox="0 0 10 10" refX="8.5" refY="5" markerWidth="6.5" markerHeight="6.5" orient="auto-start-reverse"><path d="M0,0 L10,5 L0,10 z" fill="#6a4fb3"/></marker></defs><rect x="10" y="10" width="540" height="40" rx="8" fill="#e4effa" stroke="#0b5ea8" stroke-width="2" /><text x="24" y="36" font-size="16.5" fill="#0b5ea8" font-weight="bold" text-anchor="start" >表在感覚</text><text x="130" y="36" font-size="16" fill="#142638" font-weight="normal" text-anchor="start" >痛覚・温度覚・触覚</text><rect x="10" y="56" width="540" height="40" rx="8" fill="#e5f5ec" stroke="#2e8b57" stroke-width="2" /><text x="24" y="82" font-size="16.5" fill="#2e8b57" font-weight="bold" text-anchor="start" >深部感覚</text><text x="130" y="82" font-size="16" fill="#142638" font-weight="normal" text-anchor="start" >位置覚・振動覚・深部痛覚</text><rect x="10" y="102" width="540" height="40" rx="8" fill="#efeafb" stroke="#6a4fb3" stroke-width="2" /><text x="24" y="128" font-size="16.5" fill="#6a4fb3" font-weight="bold" text-anchor="start" >複合感覚</text><text x="130" y="128" font-size="16" fill="#142638" font-weight="normal" text-anchor="start" >立体覚・二点識別覚・局所覚</text><text x="24" y="170" font-size="14.5" fill="#6a4fb3" font-weight="bold" text-anchor="start" >複合感覚の障害 → 頭頂葉障害を疑う</text><text x="24" y="208" font-size="15" fill="#073b6a" font-weight="bold" text-anchor="start" >二点識別覚（区別できる最小の間隔）</text><text x="24" y="238" font-size="14.5" fill="#142638" font-weight="bold" text-anchor="start" >指先</text><rect x="70" y="225" width="12" height="18" rx="4" fill="#e4effa" stroke="#0b5ea8" stroke-width="1.5" /><text x="92" y="239" font-size="14.5" fill="#0b5ea8" font-weight="bold" text-anchor="start" >3〜6mm</text><text x="24" y="268" font-size="14.5" fill="#142638" font-weight="bold" text-anchor="start" >手背</text><rect x="70" y="255" width="90" height="18" rx="4" fill="#e4effa" stroke="#0b5ea8" stroke-width="1.5" /><text x="170" y="269" font-size="14.5" fill="#0b5ea8" font-weight="bold" text-anchor="start" >3cm</text><text x="24" y="298" font-size="14.5" fill="#142638" font-weight="bold" text-anchor="start" >背中</text><rect x="70" y="285" width="200" height="18" rx="4" fill="#e4effa" stroke="#0b5ea8" stroke-width="1.5" /><text x="280" y="299" font-size="14.5" fill="#0b5ea8" font-weight="bold" text-anchor="start" >4〜7cm</text><text x="330" y="260" font-size="14" fill="#607487" font-weight="normal" text-anchor="start" >指先ほど細かく</text><text x="330" y="282" font-size="14" fill="#607487" font-weight="normal" text-anchor="start" >感じ分けられる</text><rect x="10" y="322" width="266" height="230" rx="10" fill="#fdecee" stroke="#cf2634" stroke-width="2" /><text x="22" y="348" font-size="16" fill="#cf2634" font-weight="bold" text-anchor="start" >脊髄性失調（後索障害）</text><circle cx="80" cy="380" r="13" fill="#fff" stroke="#cf2634" stroke-width="2.5"/><circle cx="75" cy="378" r="2" fill="#cf2634" stroke="#cf2634" stroke-width="1"/><circle cx="85" cy="378" r="2" fill="#cf2634" stroke="#cf2634" stroke-width="1"/><line x1="80" y1="393" x2="80.0" y2="438" stroke="#cf2634" stroke-width="3"/><line x1="80.0" y1="438" x2="73" y2="472" stroke="#cf2634" stroke-width="3"/><line x1="80.0" y1="438" x2="87" y2="472" stroke="#cf2634" stroke-width="3"/><line x1="80.0" y1="404" x2="66.0" y2="430" stroke="#cf2634" stroke-width="2.5"/><line x1="80.0" y1="404" x2="94.0" y2="430" stroke="#cf2634" stroke-width="2.5"/><circle cx="216" cy="380" r="13" fill="#fff" stroke="#cf2634" stroke-width="2.5"/><line x1="208" y1="378" x2="214" y2="378" stroke="#cf2634" stroke-width="2"/><line x1="218" y1="378" x2="224" y2="378" stroke="#cf2634" stroke-width="2"/><line x1="216" y1="393" x2="206.4" y2="438" stroke="#cf2634" stroke-width="3"/><line x1="206.4" y1="438" x2="193" y2="472" stroke="#cf2634" stroke-width="3"/><line x1="206.4" y1="438" x2="207" y2="472" stroke="#cf2634" stroke-width="3"/><line x1="212.8" y1="404" x2="198.8" y2="430" stroke="#cf2634" stroke-width="2.5"/><line x1="212.8" y1="404" x2="226.8" y2="430" stroke="#cf2634" stroke-width="2.5"/><text x="80" y="492" font-size="14" fill="#142638" font-weight="bold" text-anchor="middle" >開眼</text><text x="200" y="492" font-size="14" fill="#142638" font-weight="bold" text-anchor="middle" >閉眼</text><line x1="120" y1="432" x2="158" y2="432" stroke="#607487" stroke-width="2.5" marker-end="url(#ah)"/><text x="22" y="520" font-size="16" fill="#cf2634" font-weight="bold" text-anchor="start" >ロンベルグ陽性</text><text x="22" y="542" font-size="13.5" fill="#142638" font-weight="normal" text-anchor="start" >目で位置を補っている</text><rect x="284" y="322" width="266" height="230" rx="10" fill="#e4effa" stroke="#0b5ea8" stroke-width="2" /><text x="296" y="348" font-size="16" fill="#0b5ea8" font-weight="bold" text-anchor="start" >小脳性失調</text><circle cx="364" cy="380" r="13" fill="#fff" stroke="#0b5ea8" stroke-width="2.5"/><circle cx="359" cy="378" r="2" fill="#0b5ea8" stroke="#0b5ea8" stroke-width="1"/><circle cx="369" cy="378" r="2" fill="#0b5ea8" stroke="#0b5ea8" stroke-width="1"/><line x1="364" y1="393" x2="358.0" y2="438" stroke="#0b5ea8" stroke-width="3"/><line x1="358.0" y1="438" x2="347" y2="472" stroke="#0b5ea8" stroke-width="3"/><line x1="358.0" y1="438" x2="361" y2="472" stroke="#0b5ea8" stroke-width="3"/><line x1="362.0" y1="404" x2="348.0" y2="430" stroke="#0b5ea8" stroke-width="2.5"/><line x1="362.0" y1="404" x2="376.0" y2="430" stroke="#0b5ea8" stroke-width="2.5"/><circle cx="486" cy="380" r="13" fill="#fff" stroke="#0b5ea8" stroke-width="2.5"/><line x1="478" y1="378" x2="484" y2="378" stroke="#0b5ea8" stroke-width="2"/><line x1="488" y1="378" x2="494" y2="378" stroke="#0b5ea8" stroke-width="2"/><line x1="486" y1="393" x2="478.8" y2="438" stroke="#0b5ea8" stroke-width="3"/><line x1="478.8" y1="438" x2="467" y2="472" stroke="#0b5ea8" stroke-width="3"/><line x1="478.8" y1="438" x2="481" y2="472" stroke="#0b5ea8" stroke-width="3"/><line x1="483.6" y1="404" x2="469.6" y2="430" stroke="#0b5ea8" stroke-width="2.5"/><line x1="483.6" y1="404" x2="497.6" y2="430" stroke="#0b5ea8" stroke-width="2.5"/><text x="354" y="492" font-size="14" fill="#142638" font-weight="bold" text-anchor="middle" >開眼</text><text x="474" y="492" font-size="14" fill="#142638" font-weight="bold" text-anchor="middle" >閉眼</text><line x1="394" y1="432" x2="432" y2="432" stroke="#607487" stroke-width="2.5" marker-end="url(#ah)"/><text x="296" y="520" font-size="16" fill="#0b5ea8" font-weight="bold" text-anchor="start" >ロンベルグ陰性</text><text x="296" y="542" font-size="13.5" fill="#142638" font-weight="normal" text-anchor="start" >開眼でもふらつく</text></svg>